HIERARCHY
ROOT Hips
{
 OFFSET 0.000000 0.000000 0.000000
 CHANNELS 6 Xposition Yposition Zposition Yrotation Xrotation Zrotation
 JOINT Chest
 {
  OFFSET 0.000000 9.585900 0.002600
  CHANNELS 3 Yrotation Xrotation Zrotation
  JOINT Chest2
  {
   OFFSET 0.000000 9.601200 -0.005300
   CHANNELS 3 Yrotation Xrotation Zrotation
   JOINT Chest3
   {
    OFFSET 0.000000 9.561800 0.000000
    CHANNELS 3 Yrotation Xrotation Zrotation
    JOINT Chest4
    {
     OFFSET 0.000000 9.552100 0.000000
     CHANNELS 3 Yrotation Xrotation Zrotation
     JOINT Neck
     {
      OFFSET 0.000000 14.453000 0.000000
      CHANNELS 3 Yrotation Xrotation Zrotation
      JOINT Head
      {
       OFFSET 0.000000 8.936500 -0.011300
       CHANNELS 3 Yrotation Xrotation Zrotation
       End Site
       {
        OFFSET 0.000000 17.073600 -0.006000
       }
      }
     }
     JOINT RightCollar
     {
      OFFSET -2.921100 9.558500 0.000000
      CHANNELS 3 Yrotation Xrotation Zrotation
      JOINT RightShoulder
      {
       OFFSET -13.519700 0.000000 0.000000
       CHANNELS 3 Yrotation Xrotation Zrotation
       JOINT RightElbow
       {
        OFFSET 0.000000 -29.696600 0.000000
        CHANNELS 3 Yrotation Xrotation Zrotation
        JOINT RightWrist
        {
         OFFSET 0.000000 -24.004700 0.000000
         CHANNELS 3 Yrotation Xrotation Zrotation
         End Site
         {
          OFFSET 0.000000 -17.728500 0.000000
         }
        }
       }
      }
     }
     JOINT LeftCollar
     {
      OFFSET 2.921100 9.558500 0.000000
      CHANNELS 3 Yrotation Xrotation Zrotation
      JOINT LeftShoulder
      {
       OFFSET 13.519700 0.000000 0.000000
       CHANNELS 3 Yrotation Xrotation Zrotation
       JOINT LeftElbow
       {
        OFFSET 0.000000 -29.696600 0.000000
        CHANNELS 3 Yrotation Xrotation Zrotation
        JOINT LeftWrist
        {
         OFFSET 0.000000 -24.004700 0.000000
         CHANNELS 3 Yrotation Xrotation Zrotation
         End Site
         {
          OFFSET 0.000000 -17.728500 0.000000
         }
        }
       }
      }
     }
    }
   }
  }
 }
 JOINT RightHip
 {
  OFFSET -7.771700 -0.012900 -0.001300
  CHANNELS 3 Yrotation Xrotation Zrotation
  JOINT RightKnee
  {
   OFFSET 0.000000 -40.869800 0.001200
   CHANNELS 3 Yrotation Xrotation Zrotation
   JOINT RightAnkle
   {
    OFFSET 0.000000 -39.717900 0.002100
    CHANNELS 3 Yrotation Xrotation Zrotation
    JOINT RightToe
    {
     OFFSET 0.000000 -4.965400 11.033500
     CHANNELS 3 Yrotation Xrotation Zrotation
     End Site
     {
      OFFSET 0.000000 -1.423100 5.872300
     }
    }
   }
  }
 }
 JOINT LeftHip
 {
  OFFSET 7.771700 -0.012900 -0.001300
  CHANNELS 3 Yrotation Xrotation Zrotation
  JOINT LeftKnee
  {
   OFFSET 0.000000 -40.869800 0.001200
   CHANNELS 3 Yrotation Xrotation Zrotation
   JOINT LeftAnkle
   {
    OFFSET 0.000000 -39.717900 0.002100
    CHANNELS 3 Yrotation Xrotation Zrotation
    JOINT LeftToe
    {
     OFFSET 0.000000 -4.965400 11.033500
     CHANNELS 3 Yrotation Xrotation Zrotation
     End Site
     {
      OFFSET 0.000000 -1.423100 5.872300
     }
    }
   }
  }
 }
}
MOTION
Frames: 13
Frame Time: 0.008333
-55.268210 57.850053 11.615061 179.135301 -51.852665 -3.574496 3.015484 22.286272 2.771085 1.549270 12.748891 1.441947 1.996262 15.896321 1.879844 1.550410 12.782399 1.431273 -2.460225 18.175268 0.886849 -4.779188 -2.051907 2.372790 3.756675 4.496094 0.343134 -0.956973 -21.208655 -8.935351 -28.668432 -20.333170 82.957842 -6.505264 -1.870888 -22.937781 -10.117872 1.083094 -1.793660 -3.281400 -19.216302 13.846593 26.450042 -24.691234 -72.937810 15.513718 -1.497614 13.842731 4.798557 -19.397776 -2.854192 -31.588110 74.697319 -36.382677 6.645478 -16.130571 12.747206 0.000274 -0.051561 0.009112 -6.985965 -17.321469 5.065722 85.988293 81.252639 85.384178 0.142623 -21.467038 -18.186820 0.020502 0.031728 0.007154
-55.270817 57.850799 11.611863 179.136341 -51.840708 -3.580239 3.018536 22.302964 2.767250 1.551863 12.742656 1.442682 2.004165 15.922553 1.872410 1.552124 12.758190 1.437941 -2.449539 18.122870 0.880817 -4.759603 -2.179078 2.357664 3.757720 4.506908 0.347018 -0.974765 -21.206626 -8.926327 -28.665058 -20.348099 82.975008 -6.514901 -1.880784 -22.933505 -10.114031 1.090907 -1.793519 -3.272207 -19.211782 13.850575 26.454567 -24.710541 -72.983128 15.498615 -1.503895 13.858379 4.800734 -19.408093 -2.848264 -31.609786 74.694346 -36.405687 6.664218 -16.132828 12.748138 0.004351 -0.054002 0.009704 -6.984368 -17.334228 5.065325 86.009238 81.248123 85.411323 0.143798 -21.467320 -18.187327 0.014567 0.030811 0.006044
-55.273615 57.849864 11.609865 179.125954 -51.815429 -3.575740 3.026679 22.298586 2.764603 1.555292 12.751473 1.438933 2.009864 15.931932 1.866952 1.556421 12.751013 1.439418 -2.440361 18.057976 0.875165 -4.734124 -2.311107 2.340719 3.762769 4.509271 0.349402 -0.995818 -21.203015 -8.910354 -28.667971 -20.374548 82.993780 -6.526153 -1.886548 -22.930777 -10.108096 1.091256 -1.785819 -3.278041 -19.223860 13.859843 26.462750 -24.714546 -73.018821 15.504982 -1.517850 13.850295 4.811097 -19.434240 -2.843487 -31.645061 74.691951 -36.444699 6.675389 -16.135886 12.755370 0.005863 -0.054211 0.008596 -6.979004 -17.359318 5.070890 86.023230 81.233166 85.419373 0.135970 -21.469271 -18.179105 0.005565 0.034208 0.003146
-55.277768 57.848884 11.607637 179.124844 -51.789011 -3.569006 3.023997 22.279677 2.755718 1.560641 12.783679 1.430103 2.015716 15.933398 1.863551 1.561127 12.752196 1.436547 -2.419516 17.951093 0.852606 -4.717804 -2.413960 2.339330 3.762446 4.507253 0.354433 -1.008677 -21.202448 -8.893848 -28.675647 -20.402210 83.013009 -6.523098 -1.890905 -22.929374 -10.100229 1.082667 -1.770717 -3.287538 -19.235408 13.867345 26.470801 -24.722727 -73.051766 15.502690 -1.523323 13.853686 4.816511 -19.460736 -2.849283 -31.642855 74.702590 -36.451920 6.661436 -16.142138 12.767575 0.003008 -0.054013 0.005874 -6.973439 -17.388670 5.063554 86.045527 81.222987 85.442483 0.137455 -21.468959 -18.176091 -0.005693 0.035885 0.001469
-55.279577 57.844728 11.607968 179.112854 -51.737588 -3.565586 3.030332 22.258528 2.751196 1.565763 12.769141 1.433824 2.024330 15.952293 1.857180 1.565569 12.753681 1.434500 -2.419893 17.904557 0.864816 -4.681139 -2.575626 2.290166 3.752213 4.508998 0.358048 -1.010968 -21.221019 -8.881002 -28.676061 -20.398473 83.018219 -6.522640 -1.893114 -22.923182 -10.100941 1.063502 -1.753213 -3.254466 -19.189577 13.846674 26.461800 -24.781953 -73.096798 15.502201 -1.528786 13.857182 4.824263 -19.514661 -2.846455 -31.654025 74.704736 -36.461599 6.654412 -16.146436 12.769874 0.000099 -0.048560 0.005075 -6.965623 -17.441896 5.076348 86.066974 81.220194 85.466838 0.136763 -21.475415 -18.173548 0.004439 0.040203 0.001847
-55.281352 57.843794 11.605530 179.108780 -51.710584 -3.565152 3.039853 22.263826 2.751738 1.565322 12.753375 1.434323 2.033641 15.971202 1.851788 1.570498 12.755794 1.433087 -2.409765 17.831502 0.851598 -4.659943 -2.708017 2.260785 3.751633 4.541522 0.351838 -1.018026 -21.236757 -8.865203 -28.696218 -20.426759 83.043291 -6.536325 -1.902012 -22.916333 -10.105504 1.041873 -1.735706 -3.237341 -19.162907 13.835104 26.462727 -24.820464 -73.133130 15.503522 -1.529771 13.861795 4.832524 -19.540821 -2.841662 -31.675055 74.705227 -36.482450 6.643187 -16.151202 12.777136 0.005842 -0.045177 0.004256 -6.959245 -17.469173 5.082269 86.080277 81.219764 85.483652 0.136782 -21.478802 -18.170992 0.009506 0.040448 0.002077
-55.282479 57.844182 11.601855 179.104981 -51.694075 -3.565094 3.049379 22.277445 2.749514 1.580658 12.786338 1.429187 2.033706 15.940239 1.858079 1.575609 12.757773 1.431826 -2.401667 17.762780 0.835037 -4.637005 -2.837745 2.228560 3.742273 4.521724 0.359842 -1.001666 -21.197264 -8.873554 -28.724463 -20.452903 83.068506 -6.540785 -1.904415 -22.913394 -10.099735 1.035982 -1.725548 -3.252152 -19.173373 13.842884 26.471423 -24.833545 -73.155861 15.501943 -1.526346 13.868958 4.852688 -19.559858 -2.834901 -31.738088 74.709655 -36.534409 6.628096 -16.150989 12.778306 0.024434 -0.049769 0.010066 -6.955304 -17.484497 5.088020 86.095907 81.220885 85.501117 0.132927 -21.482735 -18.167874 0.008897 0.039288 0.002034
-55.282901 57.844321 11.598167 179.101000 -51.676618 -3.565427 3.059872 22.288881 2.753363 1.582001 12.777919 1.425471 2.042049 15.947572 1.854714 1.580812 12.758910 1.430306 -2.390737 17.700530 0.821791 -4.611805 -2.962032 2.189831 3.732333 4.507248 0.369324 -0.986516 -21.171721 -8.881553 -28.748802 -20.471107 83.090730 -6.570289 -1.900454 -22.911180 -10.098035 1.027644 -1.715393 -3.263038 -19.176001 13.851784 26.473835 -24.848533 -73.167675 15.505901 -1.524498 13.866213 4.857828 -19.578487 -2.832819 -31.743269 74.715249 -36.540572 6.639450 -16.154977 12.777922 0.014446 -0.052602 0.009192 -6.951454 -17.502139 5.094480 86.112945 81.222736 85.520837 0.139604 -21.480772 -18.166622 0.012319 0.035231 0.000781
-55.283288 57.841198 11.596813 179.096625 -51.635601 -3.562434 3.065603 22.272827 2.746314 1.590494 12.776856 1.427297 2.047515 15.948183 1.852539 1.585240 12.759432 1.428481 -2.380063 17.639102 0.802513 -4.580556 -3.076739 2.151880 3.726903 4.506976 0.370144 -0.984906 -21.170065 -8.875232 -28.766546 -20.473519 83.103091 -6.558933 -1.906390 -22.905503 -10.095402 1.029824 -1.710132 -3.261976 -19.171595 13.862840 26.487981 -24.875593 -73.206884 15.509090 -1.511941 13.876785 4.863033 -19.622265 -2.836130 -31.748092 74.726751 -36.545293 6.635641 -16.163444 12.777529 0.007884 -0.050508 0.008770 -6.945696 -17.545476 5.102152 86.134282 81.227544 85.549669 0.129435 -21.485624 -18.162566 0.016509 0.035309 0.002839
-55.283141 57.840785 11.593113 179.098795 -51.616681 -3.564608 3.081814 22.293141 2.748070 1.592264 12.765868 1.426738 2.050086 15.942743 1.851906 1.585286 12.754236 1.429783 -2.342417 17.550789 0.738892 -4.571411 -3.149371 2.154163 3.726252 4.534098 0.365226 -0.984507 -21.182898 -8.870247 -28.769341 -20.457024 83.106936 -6.551072 -1.928515 -22.891178 -10.093305 1.035382 -1.709138 -3.236162 -19.151704 13.865988 26.482958 -24.912914 -73.259273 15.512488 -1.511588 13.888784 4.868520 -19.643930 -2.835923 -31.766181 74.738345 -36.557145 6.620022 -16.162628 12.773918 0.013745 -0.055466 0.011666 -6.943800 -17.565862 5.105429 86.179232 81.244158 85.599059 0.145738 -21.489653 -18.160684 0.014975 0.032658 0.001242
-55.282703 57.841086 11.588663 179.099333 -51.605080 -3.564962 3.096367 22.308219 2.751074 1.586513 12.749743 1.426946 2.055774 15.948264 1.848861 1.580826 12.743388 1.434885 -2.332711 17.527429 0.724138 -4.522870 -3.273142 2.091112 3.730680 4.548585 0.358070 -0.977638 -21.162932 -8.874588 -28.792561 -20.460335 83.129921 -6.552410 -1.936780 -22.896499 -10.080612 1.050449 -1.724744 -3.254690 -19.165421 13.888118 26.494405 -24.908272 -73.296656 15.510977 -1.512069 13.908013 4.876062 -19.655257 -2.835772 -31.779884 74.742733 -36.565935 6.612669 -16.163764 12.775887 0.018588 -0.057022 0.010485 -6.940147 -17.577884 5.107812 86.203875 81.250745 85.627064 0.149030 -21.491612 -18.158560 0.016511 0.029832 0.001129
-55.281577 57.839933 11.585240 179.102554 -51.584132 -3.570198 3.103425 22.306733 2.753055 1.585207 12.739808 1.427961 2.054483 15.943255 1.849958 1.592365 12.760116 1.424968 -2.328379 17.488524 0.722419 -4.470571 -3.389560 2.027010 3.730524 4.545236 0.358636 -0.980229 -21.153345 -8.870897 -28.809063 -20.461002 83.147328 -6.565391 -1.937622 -22.904243 -10.082785 1.047589 -1.720105 -3.240641 -19.162932 13.893896 26.503806 -24.913070 -73.356021 15.514955 -1.505540 13.938174 4.882941 -19.679936 -2.831456 -31.809095 74.755374 -36.585756 6.607230 -16.170026 12.769331 0.021690 -0.059419 0.012674 -6.939910 -17.599598 5.114040 86.218485 81.253499 85.646332 0.149140 -21.493540 -18.157909 0.015470 0.029711 0.002070
-55.280672 57.836853 11.583196 179.102282 -51.550284 -3.570764 3.105648 22.282603 2.751754 1.592402 12.749814 1.426490 2.058529 15.941868 1.849542 1.603899 12.773391 1.413319 -2.314425 17.422562 0.714537 -4.429374 -3.481077 1.979051 3.725366 4.528798 0.369242 -0.982789 -21.145865 -8.869987 -28.830467 -20.470963 83.165793 -6.592254 -1.922691 -22.915813 -10.086901 1.036668 -1.704941 -3.197991 -19.149166 13.890428 26.474862 -24.942209 -73.400847 15.506992 -1.501642 13.956564 4.885181 -19.715276 -2.834199 -31.816158 74.759734 -36.590399 6.615252 -16.177822 12.765048 0.014047 -0.055952 0.013758 -6.936618 -17.635540 5.120098 86.259596 81.260128 85.691399 0.150104 -21.500214 -18.152136 0.013227 0.031267 0.000470
